# xmcd
#
# Track frame offsets: 
#        150
#        10767
#        22381
#        36523
#        52315
#        58173
#        85124
#        92203
#        109428
#        124619
#        134056
#
# Disc length: 1875 seconds
#
# Revision: 0
# Processed by: cddbd v1.5.2PL0 Copyright (c) Steve Scherf et al.
# Submitted via: ExactAudioCopyFreeDBPlugin 1.0
#
DISCID=a707510b
DTITLE=!Úl.. - st
DYEAR=2009
DGENRE=Metal
TTITLE0=Intro
TTITLE1=V hubě hlínu
TTITLE2=Show
TTITLE3=Kopím a lukem
TTITLE4=Oči plné much - Intro 
TTITLE5=Oči plné much
TTITLE6=Oči plné much - Outro
TTITLE7=Děkuji
TTITLE8=??!?
TTITLE9=Věčným vodám vstříc
TTITLE10=Outro
EXTD=
EXTT0=
EXTT1=
EXTT2=
EXTT3=
EXTT4=
EXTT5=
EXTT6=
EXTT7=
EXTT8=
EXTT9=
EXTT10=
PLAYORDER=
